<svg xmlns="http://www.w3.org/2000/svg" version="1.1" xmlns:xlink="http://www.w3.org/1999/xlink" width="2000" height="1500" viewBox="0 0 2000 1500"><rect width="2000" height="1500" x="0" y="0" id="background" stroke="transparent" fill="#ffffff"></rect><svg xml:space="preserve" width="1500" height="1125" data-version="2" data-id="lg_D8zHOfFzXQqRKXsSeM" viewBox="0 0 451 569" x="250" y="187.5"><rect width="100%" height="100%" fill="transparent"></rect><path fill="#d0222c" d="M42.725 471.935h17.28v7.4h-5.93l19.55 54.31h6.52v7.41h-20.93v-7.41h5.82l-4.44-12.93h-27.06l-4.44 12.93h5.93v7.41h-20.94v-7.41h6.42l19.55-54.21q-15.4.2-21.62 3.51-6.22 3.31-6.22 10.12 0 2.96 1.28 4.89 1.28 1.92 3.75 1.92 4.64 0 4.64-7.8h7.9q0 6.42-2.96 10.81-2.96 4.4-9.58 4.4-6.61 0-9.77-4.15-3.16-4.15-3.16-10.07 0-9.68 9.18-15.41 9.18-5.72 29.23-5.72m15.7 42.36-11.36-32.98-11.35 32.98zm39.69-10.27v30.61h8.59v6.42h-24.58v-6.42h7.6v-36.54h-7.6v-6.41h14.12l1.18 5.23q3.36-1.88 5.43-2.91 2.08-1.04 5.98-2.18 3.9-1.13 7.55-1.13 8.49 0 11.7 5.03 3.21 5.04 3.21 13.93v25.47h8.1v4.15q-3.66 2.27-8.45 2.27-4.78 0-6.41-1.63t-1.63-5.28v-24.98q0-5.73-1.48-8.64-1.48-2.92-6.82-2.92-5.33 0-16.49 5.93m59.74 38.02q-6.81 0-10.66-3.9-3.85-3.91-3.85-10.47 0-6.57 5.13-11.01 5.14-4.44 15.21-4.44h10.76v-5.04q0-9.09-8.69-9.09-7.31 0-13.43 1.78v6.62h-6.91v-11.75q4.44-1.88 10.52-2.96 6.07-1.09 10.12-1.09 7.9 0 12.34 4.49 4.44 4.49 4.44 12v27.94h8.1v4.15q-3.65 2.27-8.39 2.27t-6.42-1.58q-1.68-1.58-1.68-5.33-7.4 7.41-16.59 7.41m.89-7.41q8.49 0 15.7-9.58v-6.32h-10.86q-6.02 0-8.94 2.37-2.91 2.37-2.91 5.98 0 3.6 1.78 5.57 1.78 1.98 5.23 1.98m42.86-61.22h-7.61v-6.42h16v67.64h8.59v6.42h-24.69v-6.42h7.71zm26.56 24.68h-6.12v-6.41h18.66v6.41h-3.56l11.06 33.48 10.37-33.48h-4.54v-6.41h17.77v6.41h-4.64l-14.32 42.96q-3.75 10.96-8.29 16.64-4.54 5.67-12.64 5.67-4.64 0-9.87-1.77l2.37-6.92q4.04 1.19 6.91 1.19 8.49 0 13.03-13.43zm79.19 28.74h6.91v14.22h-39.2v-5.43l26.76-36.54h-18.66v7.21h-6.91v-14.61h37.22v5.43l-26.86 36.53h20.74zm21.23-28.74h-7.6v-6.41h15.99v42.95h8.59v6.42h-24.68v-6.42h7.7zm3.95-15.2q-2.17 0-3.56-1.58-1.38-1.58-1.38-3.8 0-2.22 1.53-3.9 1.53-1.68 3.71-1.68 2.17 0 3.55 1.58t1.38 3.8q0 2.22-1.53 3.9-1.53 1.68-3.7 1.68m57.27 15.2h-7.6v-6.41h15.99v43.44h8.1v4.15q-3.65 2.27-9.73 2.27-6.07 0-6.66-5.23-10.37 5.82-18.61 5.82-8.25 0-11.46-5.03-3.21-5.04-3.21-13.92v-25.09h-7.6v-6.41h16v31.5q0 5.72 1.48 8.64 1.48 2.91 6.81 2.91t16.49-5.93zm21.43 40.09v-11.35h6.91v6.22q3.75 1.48 9.13 1.48 5.39 0 8.2-1.73 2.81-1.72 2.81-4.29 0-2.57-2.12-4.2-2.12-1.63-10.07-5.87-7.95-4.25-11.11-7.16-3.16-2.92-3.16-7.66 0-6.12 4.79-9.52 4.79-3.41 13.08-3.41 8.3 0 15.7 4.05v11.75h-6.91v-6.62q-4.34-1.78-9.23-1.78-4.89 0-6.96 1.83-2.08 1.83-2.08 4t1.58 3.46q2.67 2.17 9.58 5.63 8.79 4.83 12.05 7.8 3.26 2.96 3.26 7.6 0 6.12-5.24 9.82-5.23 3.71-14.56 3.71t-15.65-3.76M374.597 64.613l-.091-.457q0-.275-.092-.458l-.137-.457-.183-.366-.274-.365-.274-.366-.046-.092-55.367-55.32-.091-.092-.366-.274-.366-.23-.366-.182-.457-.183-.411-.091h-.458l-.137-.046H140.054l-.458.091-.457.046-.366.183-.457.183-.32.229-.366.32h-.091L82.218 62.098l-.092.046-.274.366-.274.365-.183.412-.137.457-.092.366-.045.503v293.522l.045.457q0 .275.092.458l.137.457.183.366.274.365.274.366.046.046 55.367 55.367.091.091.229.183.457.32.229.137.548.183.275.092.823.091h175.336l.823-.091.229-.092a4.572 4.572 0 0 0 1.28-.64l.183-.183.091-.091 55.321-55.321.092-.092.274-.366.274-.365.183-.412.137-.457.092-.366.045-.457zM316.35 16.927l.457-1.006 47.457 47.457-.091.046-37.49 15.545-25.466-25.512zm5.76 67.94V337.88l-13.35 13.396-13.441 13.442H160.353l-13.441-13.442-13.396-13.396V84.867l13.396-13.396 13.441-13.442H295.32zm-12.207-71.78-15.544 37.49H161.268l-15.545-37.49zM138.82 15.92l.777 1.829 14.768 35.661-25.466 25.558-37.49-15.545h-.092zM88.527 70.236l37.536 15.545v251.14l-37.536 15.545zm50.292 336.637-47.457-47.55h.091l37.49-15.544 25.467 25.512-14.174 34.29zm6.858 2.834 15.59-37.581h133.137l15.545 37.581zm171.13-2.834-1.371-3.338-14.174-34.244 25.512-25.512 37.445 15.545h.091zm50.338-54.407-37.536-15.545V85.827l37.536-15.545z"></path><path fill="none" stroke="#d0222c" stroke-width="3.63" d="M186.695 283.655h-18.21l60.33-147.25h.32l60.32 147.25h-19.16l-16.78-42.28h-49.88zm34.2-85.5-11.24 28.18h37.84l-11.24-28.18q-2.06-5.38-3.96-10.61-1.9-5.22-3.8-12.51-1.9 7.29-3.64 12.43-1.74 5.15-3.96 10.69z" paint-order="stroke"></path><path fill="none" d="M186.695 283.655h-18.21l60.33-147.25h.32l60.32 147.25h-19.16l-16.78-42.28h-49.88zm34.2-85.5-11.24 28.18h37.84l-11.24-28.18q-2.06-5.38-3.96-10.61-1.9-5.22-3.8-12.51-1.9 7.29-3.64 12.43-1.74 5.15-3.96 10.69" paint-order="stroke"></path><path fill="#fff" stroke="#d0222c" stroke-width="6.724" d="m100.608 8.992 9.098 33.781a34.561 34.561 0 0 0 24.367 24.368l33.782 9.098-33.782 9.097a34.561 34.561 0 0 0-24.367 24.368l-9.098 33.781-9.098-33.78a34.561 34.561 0 0 0-24.367-24.369l-33.775-9.104 33.781-9.098a34.561 34.561 0 0 0 24.368-24.367z" paint-order="stroke"></path><path fill="#fff" stroke="#d0222c" stroke-width="4.034" d="m58.69 128.162 5.458 20.267a20.735 20.735 0 0 0 14.62 14.619l20.266 5.458-20.267 5.458a20.735 20.735 0 0 0-14.619 14.62L58.69 208.85l-5.458-20.267a20.735 20.735 0 0 0-14.62-14.619l-20.262-5.462 20.267-5.458a20.735 20.735 0 0 0 14.619-14.62zm282.924 139.983 5.458 20.267a20.735 20.735 0 0 0 14.62 14.619l20.266 5.458-20.267 5.458a20.735 20.735 0 0 0-14.619 14.62l-5.458 20.266-5.458-20.267a20.735 20.735 0 0 0-14.62-14.619l-20.262-5.462 20.267-5.458a20.735 20.735 0 0 0 14.619-14.62z" paint-order="stroke"></path></svg></svg>